<svg xmlns="http://www.w3.org/2000/svg" viewBox="0 0 197.69 273.73"><g><g><path fill="none" stroke="currentColor" stroke-width="1.5" stroke-miterlimit="10" d="M195.35,208.78c2.76-8.86,1.18-21.77,.79-23.74s-.98-6.21-.2-6.99,.79-3.25,.39-8.57c-.39-5.32-3.64-7.78-3.64-7.78,0,0,.1-3.45,.2-4.73s.39-3.05-.59-5.12-5.02-10.05-6.6-19.99-.69-22.65,0-28.17-1.48-5.91-1.48-5.91c0,0,.98-.89-.2-3.15s-6.4-7.78-11.92-8.47-9.26,2.56-9.26,2.56c0,0-.89-10.54-.89-21.18s3.84-34.67,2.66-41.76c-1.18-7.09-6.01-7.58-12.9-8.67s-16.05-2.56-29.65-9.46c-13.59-6.89-17.93-1.67-19.5-3.84-1.44-1.98-2.49-3.05-3.69-3.05-1.21,0-2.3,1.07-3.74,3.05-1.58,2.17-5.91-3.05-19.5,3.84-13.59,6.89-22.75,8.37-29.65,9.46s-11.72,1.58-12.9,8.67,2.66,31.12,2.66,41.76-.89,21.18-.89,21.18c0,0-3.74-3.25-9.26-2.56-5.52,.69-10.74,6.21-11.92,8.47s-.2,3.15-.2,3.15c0,0-2.17,.39-1.48,5.91s1.58,18.22,0,28.17-5.61,17.93-6.6,19.99-.69,3.84-.59,5.12,.2,4.73,.2,4.73c0,0-3.25,2.46-3.64,7.78-.39,5.32-.39,7.78,.39,8.57s.2,5.02-.2,6.99-1.97,14.87,.79,23.74,7.09,18.62,7.39,30.24c.3,11.62-2.76,17.83-4.43,21.18s-3.25,5.61-2.76,6.89,.98,2.56,1.28,4.04-.2,1.58,1.18,1.77,7.78,0,7.78,0c0,0-.2-5.12,.2-6.6s2.66-8.86,3.45-13.3,1.28-14.97,.3-23.64-5.22-21.47-2.36-29.06c2.86-7.58,7.68-10.54,16.55-10.15,8.86,.39,17.63,4.53,26,3.35,8.37-1.18,12.44-4,19.7-1.18,11.14,4.32,21.71,3.77,22.24,3.74,.52,.03,11.09,.58,22.24-3.74,7.26-2.82,11.33,0,19.7,1.18,8.37,1.18,17.14-2.95,26-3.35,8.86-.39,13.69,2.56,16.55,10.15,2.86,7.58-1.38,20.39-2.36,29.06-.98,8.67-.49,19.21,.3,23.64s3.05,11.82,3.45,13.3,.2,6.6,.2,6.6c0,0,6.4,.2,7.78,0s.89-.3,1.18-1.77,.79-2.76,1.28-4.04-1.08-3.55-2.76-6.89c-1.67-3.35-4.73-9.55-4.43-21.18s4.63-21.37,7.39-30.24ZM28.15,142.09c-3.05,1.97-9.46,7.68-9.46,7.68,0,0,2.36-9.36,3.55-18.81,1.18-9.46-.2-21.67-.2-21.67,0,0,1.18,.2,4.04-1.77s7.83-4.78,7.83-4.78l-.59,3.89s-1.43,12.12-1.43,18.02,2.36,13.89,2.36,13.89c0,0-3.05,1.58-6.11,3.55Zm141.39,0c-3.05-1.97-6.11-3.55-6.11-3.55,0,0,2.36-7.98,2.36-13.89s-1.43-18.02-1.43-18.02l-.59-3.89s4.97,2.81,7.83,4.78,4.04,1.77,4.04,1.77c0,0-1.38,12.21-.2,21.67,1.18,9.46,3.55,18.81,3.55,18.81,0,0-6.4-5.71-9.46-7.68Z"/><path fill="none" stroke="currentColor" stroke-width="1.5" stroke-miterlimit="10" d="M31.37,190.16s.26,6.3,1.71,13.79c1.44,7.49,3.81,15.23,2.76,24.56-1.05,9.32-4.6,13.92-4.6,15.23s1.18,2.36,1.31,4.73,.79,2.5,.79,2.5l6.44-.13s-.53-9.06,.26-11.16,3.55-11.82,2.5-23.64-2.5-19.7-2.36-21.67,.26-2.76,.26-2.76c0,0-4.07-1.05-5.78-1.18s-3.28-.26-3.28-.26Z"/><path fill="none" stroke="currentColor" stroke-width="1.5" stroke-miterlimit="10" d="M4.9,161.76c1-.78,2.28-1.46,3.18-2.36,1.27-1.25,2.55-2.4,3.88-3.59,1.43-1.28,3-2.38,4.37-3.72,.81-.8,1.93-1.78,2.75-2.67"/><path fill="none" stroke="currentColor" stroke-width="1.5" stroke-miterlimit="10" d="M23.82,98.16c-1.05,.12-2.4,1.54-2.76,2.51-.46,1.22-.39,2.83-.06,4.07s1,4.25,1.05,5.33"/><path fill="none" stroke="currentColor" stroke-width="1.5" stroke-miterlimit="10" d="M13.49,97.47c3.84,.84,9.34-2.36,11.54,2.46,1.24,2.72,.67,5.97-.58,8.52"/><path fill="none" stroke="currentColor" stroke-width="1.5" stroke-miterlimit="10" d="M13.57,95.01s3.31-.61,4.17-.6c1.66,.01,3.26,.14,4.88,.54,2.01,.49,3.62,1.25,4.67,3.09,1.65,2.88,.97,5.78-.03,8.69"/><path fill="none" stroke="currentColor" stroke-width="1.5" stroke-miterlimit="10" d="M34.85,88.71c3.2,2.14,2.38,7.65,1.2,10.62-.47,1.2-1.46,3.56-2.78,4.06"/><path fill="none" stroke="currentColor" stroke-width="1.5" stroke-miterlimit="10" d="M18.55,97.33c-1.98,1.97-2.21,5.71-2.24,8.34-.04,3.79,.86,7.58,1.18,11.35,.52,6.12-.52,12.45-1.66,18.45-1.59,8.37-5.87,15.47-7.58,23.67"/><path fill="none" stroke="currentColor" stroke-width="1.5" stroke-miterlimit="10" d="M1.95,178.49c.46,1.44,1.67,1.7,2.78,2.61,1.43,1.17,2.79,2.44,4.2,3.64,.91,.78,2.01,1.53,2.58,2.62,.33,.64,.39,1.04,.69,1.69"/><path fill="none" stroke="currentColor" stroke-width="1.5" stroke-miterlimit="10" d="M11.6,189.7c2.46-2.79,7.88-3.84,11.31-4.62,4.79-1.08,10-.9,14.84-.34,9.04,1.05,18.35,.95,27.42,.2,3.87-.32,7.79-.5,11.68-.2,3.29,.25,6.46,1.14,9.7,1.67,2.81,.46,5.61,.99,8.46,1.17,1.28,.08,2.58-.05,3.85,.04"/><path fill="none" stroke="currentColor" stroke-width="1.5" stroke-miterlimit="10" d="M1.06,176.96c1.06,.14,2.34-.54,3.25-.91,2.98-1.19,5.9-2.52,8.88-3.74,5.4-2.22,11.24-2.93,17.01-3.53,5.98-.63,12.12-.9,18.14-.89,5.15,.01,10.23,.69,15.37,.82,4.1,.1,8.2,.26,12.3,.28,5.06,.02,10.09-.48,15.15-.51,2.6-.02,5.21,.11,7.82,.11"/><path fill="none" stroke="currentColor" stroke-width="1.5" stroke-miterlimit="10" d="M1.36,171.25c1.41-1.64,3.76-2.36,5.72-3.02,3.18-1.07,6.41-2,9.7-2.66,5.68-1.14,11.5-1.75,17.27-2.12,11.09-.72,22.28-.87,33.39-.86,4.42,0,8.8-.29,13.22-.07,3.13,.15,6.27,.25,9.4,.37,2.93,.11,5.81,.14,8.73,.09"/><path fill="none" stroke="currentColor" stroke-width="1.5" stroke-miterlimit="10" d="M34.26,138.55c1.96-.15,4.31-.11,6.2-.71s3.06-1.82,4.43-3.14c1.59-1.53,4.9-1.43,7.05-1.55,4.41-.25,8.81-.25,13.22-.51,8.55-.51,17.19-.36,25.76-.5,2.5-.04,5.51,.14,7.93,0"/><path fill="none" stroke="currentColor" stroke-width="1.5" stroke-miterlimit="10" d="M44.3,135c-3.06,.16-4.87-2.45-5.83-4.99-2.03-5.36-1.01-11.91-.58-17.53,.37-4.8,1.42-12.5,2.17-17.27,2.6-16.49,2.76-25.22,2.56-32.6,0,0-.59-7.29-1.87-15.17-1.28-7.88-2.86-14.77,1.28-18.71,4.14-3.94,7.78-3.35,15.07-4.53s16.35-5.22,20.39-7.58,8.47-3.45,12.51-2.66,8.09,1.48,8.88,1.48"/><path fill="none" stroke="currentColor" stroke-width="1.5" stroke-miterlimit="10" d="M12.59,188.71c-2.57,2.08-4.62,6.97-5.37,10.1-1.12,4.64,.26,9.85,1.44,14.37,1.04,4,2.48,7.57,3.81,11.79,1.24,3.94,1.59,7.56,1.96,11.67,.34,3.87,.54,6.98,.18,10.83-.37,3.9-1.38,7.87-2.54,11.01s-2.76,6.19-4.73,8.76"/><path fill="none" stroke="currentColor" stroke-width="1.5" stroke-miterlimit="10" d="M2.47,266.46c2.26,0,3.87,.8,6,1.18,.86,.16,4.24-.7,3.98-1.31"/><path fill="none" stroke="currentColor" stroke-width="1.5" stroke-miterlimit="10" d="M166.32,190.16s-.26,6.3-1.71,13.79-3.81,15.23-2.76,24.56c1.05,9.32,4.6,13.92,4.6,15.23s-1.18,2.36-1.31,4.73-.79,2.5-.79,2.5l-6.44-.13s.53-9.06-.26-11.16-3.55-11.82-2.5-23.64,2.5-19.7,2.36-21.67-.26-2.76-.26-2.76c0,0,4.07-1.05,5.78-1.18s3.28-.26,3.28-.26Z"/><path fill="none" stroke="currentColor" stroke-width="1.5" stroke-miterlimit="10" d="M192.79,161.76c-1-.78-2.28-1.46-3.18-2.36-1.27-1.25-2.55-2.4-3.88-3.59-1.43-1.28-3-2.38-4.37-3.72-.81-.8-1.93-1.78-2.75-2.67"/><path fill="none" stroke="currentColor" stroke-width="1.5" stroke-miterlimit="10" d="M173.87,98.16c1.05,.12,2.4,1.54,2.76,2.51,.46,1.22,.39,2.83,.06,4.07s-1,4.25-1.05,5.33"/><path fill="none" stroke="currentColor" stroke-width="1.5" stroke-miterlimit="10" d="M184.2,97.47c-3.84,.84-9.34-2.36-11.54,2.46-1.24,2.72-.67,5.97,.58,8.52"/><path fill="none" stroke="currentColor" stroke-width="1.5" stroke-miterlimit="10" d="M184.12,95.01s-3.31-.61-4.17-.6c-1.66,.01-3.26,.14-4.88,.54-2.01,.49-3.62,1.25-4.67,3.09-1.65,2.88-.97,5.78,.03,8.69"/><path fill="none" stroke="currentColor" stroke-width="1.5" stroke-miterlimit="10" d="M162.84,88.71c-3.2,2.14-2.38,7.65-1.2,10.62,.47,1.2,1.46,3.56,2.78,4.06"/><path fill="none" stroke="currentColor" stroke-width="1.5" stroke-miterlimit="10" d="M179.14,97.33c1.98,1.97,2.21,5.71,2.24,8.34,.04,3.79-.86,7.58-1.18,11.35-.52,6.12,.52,12.45,1.66,18.45,1.59,8.37,5.87,15.47,7.58,23.67"/><path fill="none" stroke="currentColor" stroke-width="1.5" stroke-miterlimit="10" d="M195.74,178.49c-.46,1.44-1.67,1.7-2.78,2.61-1.43,1.17-2.79,2.44-4.2,3.64-.91,.78-2.01,1.53-2.58,2.62-.33,.64-.39,1.04-.69,1.69"/><path fill="none" stroke="currentColor" stroke-width="1.5" stroke-miterlimit="10" d="M186.09,189.7c-2.46-2.79-7.88-3.84-11.31-4.62-4.79-1.08-10-.9-14.84-.34-9.04,1.05-18.35,.95-27.42,.2-3.87-.32-7.79-.5-11.68-.2-3.29,.25-6.46,1.14-9.7,1.67-2.81,.46-5.61,.99-8.46,1.17-1.28,.08-2.58-.05-3.85,.04,.15,.08,.31,.1,.48,.08"/><path fill="none" stroke="currentColor" stroke-width="1.5" stroke-miterlimit="10" d="M196.63,176.96c-1.06,.14-2.34-.54-3.25-.91-2.98-1.19-5.9-2.52-8.88-3.74-5.4-2.22-11.24-2.93-17.01-3.53-5.98-.63-12.12-.9-18.14-.89-5.15,.01-10.23,.69-15.37,.82-4.1,.1-8.2,.26-12.3,.28-5.06,.02-10.09-.48-15.15-.51-2.6-.02-5.21,.11-7.82,.11"/><path fill="none" stroke="currentColor" stroke-width="1.5" stroke-miterlimit="10" d="M196.33,171.25c-1.41-1.64-3.76-2.36-5.72-3.02-3.18-1.07-6.41-2-9.7-2.66-5.68-1.14-11.5-1.75-17.27-2.12-11.09-.72-22.28-.87-33.39-.86-4.42,0-8.8-.29-13.22-.07-3.13,.15-6.27,.25-9.4,.37-2.93,.11-6.24,.17-9.16,.12"/><path fill="none" stroke="currentColor" stroke-width="1.5" stroke-miterlimit="10" d="M163.43,138.55c-1.96-.15-4.31-.11-6.2-.71s-3.06-1.82-4.43-3.14c-1.59-1.53-4.9-1.43-7.05-1.55-4.41-.25-8.81-.25-13.22-.51-8.55-.51-17.19-.36-25.76-.5-2.5-.04-5.42-.08-8.28,.02"/><path fill="none" stroke="currentColor" stroke-width="1.5" stroke-miterlimit="10" d="M153.39,135c3.06,.16,4.87-2.45,5.83-4.99,2.03-5.36,1.01-11.91,.58-17.53-.37-4.8-1.42-12.5-2.17-17.27-2.6-16.49-2.76-25.22-2.56-32.6,0,0,.59-7.29,1.87-15.17,1.28-7.88,2.86-14.77-1.28-18.71-4.14-3.94-7.78-3.35-15.07-4.53-7.29-1.18-16.35-5.22-20.39-7.58s-8.47-3.45-12.51-2.66-8.24,1.51-9.2,1.45"/><path fill="none" stroke="currentColor" stroke-width="1.5" stroke-miterlimit="10" d="M185.1,188.71c2.57,2.08,4.62,6.97,5.37,10.1,1.12,4.64-.26,9.85-1.44,14.37-1.04,4-2.48,7.57-3.81,11.79-1.24,3.94-1.59,7.56-1.96,11.67-.34,3.87-.54,6.98-.18,10.83,.37,3.9,1.38,7.87,2.54,11.01s2.76,6.19,4.73,8.76"/><path fill="none" stroke="currentColor" stroke-width="1.5" stroke-miterlimit="10" d="M195.22,266.46c-2.26,0-3.87,.8-6,1.18-.86,.16-4.24-.7-3.98-1.31"/></g></g></svg>