<svg xmlns="http://www.w3.org/2000/svg" viewBox="0 0 271.92 191.07"><g><g><path fill="none" stroke="currentColor" stroke-width="1.5" stroke-miterlimit="10" d="M135.96,22.8l-74.23-2.48,.26,31.93,8.54,.13s5.91-6.57,13.27-6.18c7.36,.39,14.19,2.76,18.13,2.63s5.91-1.31,5.91-1.31c0,0,9.07,4.73,15.77,5.78,5.53,.87,10.71,.93,12.34,.92,1.63,0,6.81-.06,12.34-.92,6.7-1.05,15.77-5.78,15.77-5.78,0,0,1.97,1.18,5.91,1.31s10.77-2.23,18.13-2.63c7.36-.39,13.27,6.18,13.27,6.18l8.54-.13,.26-31.93-74.23,2.48Z"/><path fill="none" stroke="currentColor" stroke-width="1.5" stroke-miterlimit="10" d="M9.05,22.69l.79,35.87H56.22s3.94-.79,5.39-4.6c1.45-3.81,1.05-32.32,1.05-32.32l-53.61,1.05Z"/><path fill="none" stroke="currentColor" stroke-width="1.5" stroke-miterlimit="10" d="M262.87,22.69l-.79,35.87h-46.38s-3.94-.79-5.39-4.6-1.05-32.32-1.05-32.32l53.61,1.05Z"/><path fill="none" stroke="currentColor" stroke-width="1.5" stroke-miterlimit="10" d="M268,19.14c-1.23-2.1-4.2-2.45-4.2-2.45,0,0-57.26-.7-94.06-.93v-.3s-4.04,.12-9.59,.25c-10.36-.04-17.89-.02-20.04,.1-1.14,.06-2.55,.11-4.15,.13-1.6-.03-3.01-.07-4.15-.13-2.14-.12-9.68-.14-20.04-.1-5.54-.13-9.59-.25-9.59-.25v.3c-36.79,.22-94.06,.93-94.06,.93,0,0-2.98,.35-4.2,2.45s-1.05,5.43-1.05,5.43l133.09-.56,133.09,.56s.18-3.33-1.05-5.43Z"/><path fill="none" stroke="currentColor" stroke-width="1.5" stroke-miterlimit="10" d="M257.77,.75H14.15S3.78,18.09,4.83,18.88c.99,.74,71.6,.09,80.1,0,2.77,.03,12.01,.11,23.34,.19,4.87,.15,15.62,.17,27.7,.14,12.08,.03,22.84,0,27.7-.14,11.32-.08,20.57-.16,23.34-.19,8.5,.08,79.11,.73,80.1,0,1.05-.79-9.33-18.13-9.33-18.13Z"/><path fill="none" stroke="currentColor" stroke-width="1.5" stroke-miterlimit="10" d="M2.17,55.75c-2.9,6.6-.88,25.75,2.98,44.32,3.85,18.57,8.76,43.97,7.01,58.51-1.75,14.54-5.96,21.02-8.23,23.12s-3.33,2.98-3.15,5.26,.88,3.33,.88,3.33l11.21-.7s2.98-7.18,4.91-17.34c1.93-10.16,3.15-36.96,2.1-46.25-1.05-9.28-5.26-38.19-5.08-44.32,.18-6.13,.53-9.64,3.33-14.02,2.8-4.38,6.07-7.42,6.44-10.42,.53-4.34-1.84-8.15-5.52-9.46-7.58-2.71-13.53,.39-16.86,7.97Z"/><path fill="none" stroke="currentColor" stroke-width="1.5" stroke-miterlimit="10" d="M17.16,47.26c-6.11,6.79-10.42,17.11-10.09,27.36,.2,6.07,1.43,12.02,2.5,17.96,2.41,13.29,3.81,26.27,4.51,31.55,.87,6.53,1.75,13.17,2.11,19.77,.34,6.38,.36,11.87-.36,17.68-.61,4.99-1.76,9.59-3.33,13.66-1.27,3.29-2.08,5.76-3.46,8.97-.79,1.83-.56,3.77-.56,5.74"/><path fill="none" stroke="currentColor" stroke-width="1.5" stroke-miterlimit="10" d="M269.75,55.75c2.9,6.6,.88,25.75-2.98,44.32s-8.76,43.97-7.01,58.51c1.75,14.54,5.96,21.02,8.23,23.12s3.33,2.98,3.15,5.26-.88,3.33-.88,3.33l-11.21-.7s-2.98-7.18-4.91-17.34c-1.93-10.16-3.15-36.96-2.1-46.25,1.05-9.28,5.26-38.19,5.08-44.32-.18-6.13-.53-9.64-3.33-14.02s-6.07-7.42-6.44-10.42c-.53-4.34,1.84-8.15,5.52-9.46,7.58-2.71,13.53,.39,16.86,7.97Z"/><path fill="none" stroke="currentColor" stroke-width="1.5" stroke-miterlimit="10" d="M254.76,47.26c6.11,6.79,10.42,17.11,10.09,27.36-.2,6.07-1.43,12.02-2.5,17.96-2.41,13.29-3.81,26.27-4.51,31.55-.87,6.53-1.75,13.17-2.11,19.77-.34,6.38-.36,11.87,.36,17.68,.61,4.99,1.76,9.59,3.33,13.66,1.27,3.29,2.08,5.76,3.46,8.97,.79,1.83,.56,3.77,.56,5.74"/><g><path fill="none" stroke="currentColor" stroke-width="1.5" stroke-miterlimit="10" d="M126.5,29.9c-3.18-3.29-9.59,.14-11.42,2.85-2.08,3.09-2.33,7.14-.44,10.21,1.33,2.16,7.46,6.7,11.53,2.96"/><path fill="none" stroke="currentColor" stroke-width="1.5" stroke-miterlimit="10" d="M128.8,28.15c-4.34-4.21-13.25-.71-16.03,3.16-2.83,3.95-3.17,9.13-.6,13.05,1.81,2.76,10.17,8.56,15.7,3.79"/><path fill="none" stroke="currentColor" stroke-width="1.5" stroke-miterlimit="10" d="M147.08,29.9c3.18-3.29,9.59,.14,11.42,2.85,2.08,3.09,2.33,7.14,.44,10.21-1.33,2.16-7.46,6.7-11.53,2.96"/><path fill="none" stroke="currentColor" stroke-width="1.5" stroke-miterlimit="10" d="M144.77,28.15c4.34-4.21,13.25-.71,16.03,3.16s3.17,9.13,.6,13.05c-1.81,2.76-10.17,8.56-15.7,3.79"/><g><g><path d="M131.41,36.71s.02-.06,.01-.08c0,.02-.04,.06-.04,.06-.05-.02-.19-.1-.25-.17-.21-.26-.16-.64,.01-.91,.56-.84,1.47,.16,1.66,.79s.14,1.27-.09,1.88-.51,1.15-.58,1.8c-.13,1.23,.76,2.37,1.87,2.81,.99,.39,2.2,.5,3.25,.45,.96-.04,.97-1.54,0-1.5-.58,.03-1.17-.02-1.74-.11-.3-.05-.6-.11-.88-.2-.16-.05-.38-.16-.59-.36-.53-.5-.46-1.06-.21-1.69,.33-.82,.63-1.58,.58-2.49-.09-1.5-1.16-3.32-2.88-3.18-1.53,.12-2.46,1.87-1.82,3.24,.37,.79,1.3,1.37,2.17,1.06s1.32-1.36,.83-2.15-1.81-.06-1.3,.76h0Z"/><path fill="none" stroke="currentColor" stroke-width="1.5" stroke-miterlimit="10" d="M132.94,39.91c-.16,.57-.41,1.17-.55,1.74-.29,1.16,.12,2.05,1.13,2.75,.31,.21,1.5,.81,3.73,.82"/></g><g><path d="M140.87,35.95c-.38,.61-.19,1.41,.34,1.86,.57,.49,1.38,.46,1.98,.04,1.16-.82,1.16-2.6,.11-3.53-1.21-1.06-2.84-.38-3.6,.85-.41,.66-.58,1.47-.53,2.24,.05,.82,.38,1.48,.65,2.23,.23,.63,.16,1.18-.39,1.61-.59,.47-1.45,.53-2.17,.56-.96,.04-.97,1.54,0,1.5,1.14-.05,2.32-.24,3.21-.99s1.19-1.88,.83-2.96-.96-2.05-.45-3.18c.23-.52,1.01-1.32,1.53-.67,.22,.27,.29,.69,.08,.97-.07,.09-.18,.16-.27,.19,0,0,0-.01-.04-.06,0,.01,.02,.07,.02,.08,.51-.82-.78-1.57-1.3-.76h0Z"/><path fill="none" stroke="currentColor" stroke-width="1.5" stroke-miterlimit="10" d="M140.64,39.91c.16,.57,.41,1.17,.55,1.74,.29,1.16-.12,2.05-1.13,2.75-.36,.25-1.72,.83-2.8,.82"/></g></g><ellipse fill="none" stroke="currentColor" stroke-width="1.5" stroke-miterlimit="10" cx="136.72" cy="38.52" rx="13.26" ry="12.61"/></g></g></g></svg>