<svg id="mtz-logo" xmlns="http://www.w3.org/2000/svg" viewBox="58 380 998 330" fill="currentColor">
<g id="mtz-logo-matize">
  <path 
	d="
M144.601868,508.850433 
	C161.466110,506.166351 177.898438,503.486694 194.358063,500.986877 
	C197.290192,500.541534 200.346069,500.661316 203.326691,500.833588 
	C211.006027,501.277496 216.460876,505.153595 218.069931,512.689514 
	C219.835785,520.959900 220.615753,529.439697 221.855743,537.823730 
	C222.787811,544.125793 224.266327,544.943420 229.468704,541.354309 
	C243.583252,531.616821 257.403442,521.445312 271.652679,511.912811 
	C282.126465,504.906067 293.819336,500.465729 306.269653,498.231415 
	C321.622986,495.476135 330.388245,502.409821 331.170959,518.008850 
	C331.404419,522.661560 331.162842,527.336182 331.269440,531.997803 
	C331.349762,535.510681 333.090240,536.633972 336.062683,534.557190 
	C340.155762,531.697449 344.115570,528.642517 348.073120,525.594116 
	C365.151733,512.438965 383.340698,501.525421 405.170807,498.563202 
	C409.670288,497.952698 414.467468,498.500366 418.982513,499.316223 
	C424.005768,500.223907 428.219879,505.960052 428.005310,512.237305 
	C427.693695,521.352356 426.449219,530.434143 425.653534,539.534607 
	C425.306030,543.509094 424.777954,547.502747 424.882080,551.473206 
	C425.019165,556.698914 427.995972,560.422424 432.892883,559.639404 
	C442.333740,558.129639 451.588928,555.382935 460.832306,552.828064 
	C461.787079,552.564087 462.685883,550.133789 462.694733,548.703125 
	C462.855103,522.830872 484.171753,504.924347 504.603699,499.392639 
	C511.702606,497.470673 519.342896,496.817932 526.724792,496.881256 
	C533.814819,496.942047 536.876709,501.977173 535.487061,508.949615 
	C533.566345,518.586609 529.479492,522.066833 519.573364,522.949097 
	C507.866669,523.991760 499.014160,530.069885 492.098938,539.226501 
	C491.031067,540.640442 489.969360,542.531494 489.991028,544.187683 
	C490.025421,546.816284 490.354370,549.898438 491.814941,551.847229 
	C492.488983,552.746521 496.483795,552.050964 498.370087,550.998291 
	C508.398407,545.402161 518.145691,539.301819 528.179016,533.715088 
	C532.812134,531.135315 537.865540,529.305542 542.745789,527.175720 
	C547.394104,525.147095 550.751282,526.198486 552.556885,531.236023 
	C553.341125,533.424072 554.430725,535.503113 555.391113,537.627441 
	C557.831360,543.024963 560.416382,543.478577 563.998718,538.967163 
	C582.224792,516.013916 600.407654,493.026428 618.602661,470.048584 
	C621.187256,466.784485 623.878296,463.594025 626.275146,460.196655 
	C627.330078,458.701477 627.771423,456.773407 628.491333,455.041870 
	C626.777344,454.634064 625.060669,453.862091 623.349854,453.875031 
	C607.186218,453.997528 591.019836,454.102936 574.861450,454.504456 
	C546.045837,455.220520 517.230591,456.014252 488.426941,457.091705 
	C483.473694,457.277008 480.555054,455.408020 478.344147,451.471191 
	C478.018036,450.890442 477.691681,450.309418 477.381775,449.719940 
	C470.669769,436.952972 473.400299,431.047821 487.576141,430.570770 
	C531.363770,429.097137 575.170288,428.181580 618.970947,427.107208 
	C626.132996,426.931519 633.324890,426.697266 640.459900,427.157684 
	C645.002869,427.450836 647.203125,425.550201 649.497925,422.001465 
	C655.460266,412.781403 661.731873,403.747467 668.204712,394.876190 
	C672.556763,388.911530 677.996460,388.595520 685.295227,393.193512 
	C691.722412,397.242401 692.832153,400.814606 689.253540,407.877747 
	C686.247498,413.810791 682.801208,419.520172 679.581970,425.346313 
	C678.819519,426.726135 678.185852,428.177063 677.128723,430.340851 
	C705.665100,433.011017 733.520264,434.666046 760.331665,442.624664 
	C760.347961,443.167480 760.364197,443.710297 760.380432,444.253113 
	C756.423462,445.104919 752.502319,446.425629 748.503601,446.731598 
	C724.596008,448.560791 700.677124,450.259644 676.748535,451.789459 
	C663.287415,452.650024 663.218079,452.431915 656.383972,463.990417 
	C644.432983,484.203217 632.355286,504.400635 624.901855,526.814575 
	C622.853271,532.974915 621.797485,539.801636 621.975708,546.276062 
	C622.171509,553.389099 626.289673,555.554138 632.528259,552.080078 
	C641.371338,547.155518 649.642273,541.211304 658.224426,535.808777 
	C672.143616,527.046631 685.956116,518.093323 700.174622,509.842834 
	C703.971558,507.639618 709.048462,507.115936 713.594849,506.867920 
	C718.896301,506.578674 721.516968,509.292847 722.130737,514.631042 
	C722.910095,521.409546 723.337952,528.227722 724.016968,535.018860 
	C724.231323,537.162598 724.607849,539.318054 725.183533,541.392334 
	C726.786499,547.168030 731.055420,549.439331 736.202759,546.385986 
	C740.711060,543.711731 745.121765,540.336731 748.473755,536.345825 
	C760.461060,522.073425 772.000427,507.424072 783.664551,492.881409 
	C787.725769,487.817963 791.408630,482.431458 795.692749,477.570038 
	C810.069641,461.256226 825.232361,465.866241 836.829041,479.635925 
	C847.813110,492.678162 846.722778,509.710846 834.881958,522.784485 
	C831.193970,526.856445 827.209167,530.658630 823.388672,534.611816 
	C822.301941,535.736328 821.315430,536.957703 819.581543,538.934265 
	C821.486572,538.934265 822.238708,538.967957 822.987000,538.929138 
	C833.182068,538.399658 841.670715,541.904663 847.923218,550.021118 
	C850.519165,553.390869 852.990112,553.914978 856.892578,552.243469 
	C862.692566,549.759216 868.699463,547.639038 874.786987,545.984619 
	C879.320740,544.752441 879.469971,542.700623 878.204956,538.745544 
	C876.138306,532.284058 873.991211,525.680298 873.278137,518.987488 
	C871.623291,503.453888 877.268372,490.673798 890.674805,482.311584 
	C904.132019,473.917694 918.423767,473.763672 931.774292,482.201080 
	C938.514893,486.461090 944.581970,492.356079 949.631348,498.583801 
	C956.497620,507.052185 955.770996,516.088806 948.008362,523.762878 
	C942.865417,528.847107 936.763916,533.101501 930.631348,537.004272 
	C924.895813,540.654358 918.542114,543.328857 912.482361,546.474915 
	C907.763306,548.924866 907.280579,550.957886 911.862122,553.752625 
	C917.307617,557.074341 923.219177,560.213562 929.349365,561.718872 
	C945.769104,565.750610 962.475586,564.043152 979.073853,562.423584 
	C995.153687,560.854675 1011.193604,558.837952 1027.292114,557.520203 
	C1033.014160,557.051758 1038.869873,557.929077 1044.634277,558.498291 
	C1045.859741,558.619263 1047.891724,560.071838 1047.892578,560.912598 
	C1047.893921,562.243164 1046.800537,564.279480 1045.635132,564.786255 
	C1040.180664,567.157837 1034.703247,569.862732 1028.944702,571.084595 
	C995.795471,578.118835 962.366943,582.995911 928.336243,581.254944 
	C911.724792,580.405090 897.502686,574.471802 887.991211,559.963684 
	C886.240967,557.294006 884.154846,557.262878 881.552307,558.356079 
	C874.799744,561.192627 868.065063,564.082336 861.229065,566.705505 
	C857.705017,568.057861 856.546387,570.140259 856.874146,573.924316 
	C858.709229,595.110352 853.686218,614.625488 841.525696,632.082336 
	C831.829224,646.002075 819.432495,656.959900 803.705444,663.686951 
	C800.092224,665.232422 796.044250,666.059204 792.115051,666.512878 
	C779.651245,667.952271 769.763794,660.693787 766.935730,648.038208 
	C762.388611,627.690613 769.807251,611.091309 783.699524,596.780457 
	C796.373657,583.724426 811.705994,574.349915 827.586304,565.781128 
	C829.657043,564.663818 831.567261,563.249268 833.551880,561.972412 
	C833.448059,561.385498 833.344238,560.798584 833.240356,560.211670 
	C830.959961,559.794312 828.645325,558.888489 826.405029,559.045349 
	C817.441833,559.673035 808.515625,560.940918 799.547546,561.341858 
	C794.707458,561.558289 789.422241,561.497314 785.029480,559.786072 
	C778.341492,557.180603 777.554321,552.042542 782.467590,546.768982 
	C786.424866,542.521484 791.119263,538.971252 795.299194,534.918457 
	C801.259705,529.139282 807.366699,523.457031 812.769287,517.180908 
	C815.251343,514.297668 816.615723,510.225281 817.757446,506.470306 
	C819.336487,501.277191 817.506592,496.532166 813.652100,494.116211 
	C809.185669,491.316742 804.764038,492.240906 801.189880,495.437164 
	C796.870911,499.299500 792.826172,503.558472 789.175049,508.061157 
	C777.059998,523.001892 763.810120,536.779297 748.533997,548.504944 
	C740.431152,554.724487 731.683105,559.814880 721.627991,562.323608 
	C708.565430,565.582703 701.370667,560.794067 699.534058,547.542175 
	C698.484497,539.969177 697.220642,539.144470 690.231750,542.568848 
	C677.818604,548.650879 665.646667,555.234375 653.145630,561.123901 
	C647.672852,563.702332 641.764771,565.947876 635.830261,566.819702 
	C626.416321,568.202698 619.000610,563.707092 615.148865,555.201355 
	C612.457703,549.258606 611.376221,542.567993 609.770142,536.162659 
	C609.185913,533.832764 609.164429,531.361633 608.735657,527.652100 
	C606.387329,529.521545 604.745728,530.470886 603.570984,531.825134 
	C598.333618,537.863037 593.420837,544.192749 588.010071,550.066345 
	C584.422119,553.961182 580.290527,557.382446 576.216431,560.793640 
	C572.661133,563.770569 568.722656,563.707153 565.321106,560.612183 
	C558.804321,554.682739 552.291321,548.719971 546.193726,542.370605 
	C542.812866,538.850098 540.708740,538.928589 537.365601,542.439026 
	C527.913208,552.364502 517.634949,561.432190 505.175201,567.437500 
	C499.840668,570.008545 494.090881,572.108154 488.298767,573.248962 
	C479.461121,574.989746 472.341644,571.634705 467.458740,563.820923 
	C463.808167,557.979126 463.796692,558.207336 457.782379,561.639648 
	C450.873962,565.582214 444.063080,570.011902 436.652954,572.688049 
	C424.307739,577.146362 414.813507,572.444519 409.246155,560.528076 
	C404.805054,551.022278 404.438354,540.914490 404.811371,530.690430 
	C405.041687,524.377258 404.711151,524.259033 398.873230,526.543579 
	C381.092377,533.501587 366.153015,544.938477 351.186584,556.388916 
	C344.581726,561.442200 337.984528,566.611755 330.869904,570.869751 
	C317.422211,578.917908 306.706879,573.349182 305.326508,557.703918 
	C304.684509,550.427429 305.097168,543.055725 305.076355,535.727112 
	C305.051178,526.872009 302.884033,525.185303 295.066803,529.647339 
	C284.399780,535.736023 274.138184,542.560608 263.894440,549.358582 
	C251.972916,557.269897 240.332352,565.604919 228.402725,573.503662 
	C225.399902,575.491821 221.857193,576.825317 218.392929,577.925537 
	C208.125305,581.186401 199.999741,576.362122 198.270813,565.566650 
	C196.798279,556.372009 196.051849,547.054810 195.160690,537.774902 
	C194.215576,527.933105 193.647552,527.414062 183.906586,529.035950 
	C153.337662,534.125549 122.854286,539.542114 93.591095,550.241028 
	C86.626747,552.787231 79.556343,554.840698 73.058540,548.557007 
	C66.518600,542.232605 66.191551,535.509827 74.195908,531.458740 
	C85.553825,525.710510 97.562096,520.998901 109.697662,517.108215 
	C120.914116,513.512268 132.664185,511.580780 144.601868,508.850433 
M841.282043,589.677307 
	C841.491455,588.026306 841.963135,586.356140 841.844177,584.729126 
	C841.694641,582.682251 841.061890,580.670654 840.637573,578.643860 
	C838.789062,579.193726 836.729370,579.390503 835.125549,580.349487 
	C822.527405,587.882690 810.202881,595.830750 800.045349,606.610901 
	C791.272827,615.921143 785.299927,626.380310 787.488098,639.851196 
	C788.763184,647.700623 792.144653,649.612427 799.206177,646.016174 
	C822.139282,634.337158 836.754578,616.261169 841.282043,589.677307 
M897.264526,517.467590 
	C897.928162,522.054504 898.485107,526.660217 899.290344,531.222107 
	C899.895630,534.651550 901.970642,535.957092 904.914917,533.649536 
	C912.974182,527.333069 920.967896,520.925537 928.806030,514.338074 
	C932.060547,511.602875 931.708069,508.543060 928.086426,506.192780 
	C924.889465,504.118164 921.725281,501.911102 918.297424,500.289398 
	C908.139893,495.483795 899.592957,500.085266 897.807983,511.133026 
	C897.517639,512.930237 897.441833,514.762085 897.264526,517.467590 
z"/>
  <path 
	d="
M737.374939,479.019714 
	C738.494141,479.218201 739.785583,479.350311 739.993591,479.895752 
	C741.333801,483.408844 739.116943,488.988556 735.179688,491.620911 
	C731.249573,494.248474 726.887756,495.522125 722.628540,492.516541 
	C718.745117,489.776123 717.038086,485.619843 718.741028,481.164948 
	C719.609192,478.894073 722.032532,476.362823 724.259521,475.728882 
	C726.139221,475.193756 728.704529,477.379089 731.051025,478.074951 
	C732.985046,478.648438 735.043091,478.803802 737.374939,479.019714 
z"/>
</g>
<g id="mtz-logo-atelier">
  <path 
	d="
M717.596558,695.422363 
	C718.948425,697.090027 720.056030,698.485535 721.712463,700.572632 
	C714.633240,701.164124 708.501221,702.429321 704.675903,695.241150 
	C703.373108,692.793152 700.914062,690.985596 699.400330,688.618774 
	C697.211792,685.196838 694.381958,684.025391 690.043213,685.196411 
	C690.043213,690.121216 690.043213,695.208313 690.043213,700.604614 
	C686.143616,700.604614 682.726440,700.604614 679.046448,700.604614 
	C679.046448,685.113220 679.046448,669.680481 679.046448,654.081543 
	C688.502930,654.081543 697.974731,653.433167 707.311523,654.277893 
	C715.399048,655.009521 719.536133,659.991943 720.299683,667.141479 
	C721.150513,675.108765 718.560303,679.276733 710.450806,683.018066 
	C709.887756,683.277893 709.364075,683.622864 708.386292,684.173767 
	C711.517090,688.006592 714.434753,691.578430 717.596558,695.422363 
M690.155823,674.216797 
	C694.676270,674.401611 699.272461,675.131958 703.682251,674.519836 
	C705.619202,674.250916 708.740784,671.025269 708.530212,669.537598 
	C708.233215,667.438599 705.617249,664.568176 703.503052,664.058533 
	C699.304016,663.046265 694.770630,663.421082 689.965515,663.204224 
	C689.965515,667.052307 689.965515,670.169495 690.155823,674.216797 
z"/>
  <path 
	d="
M619.317993,687.982910 
	C619.317993,676.374756 619.317993,665.263855 619.317993,653.860046 
	C631.813110,653.860046 643.886536,653.860046 656.346069,653.860046 
	C656.346069,656.928406 656.346069,659.959961 656.346069,663.462463 
	C647.991577,663.462463 639.741943,663.462463 631.076904,663.462463 
	C631.076904,666.290833 631.076904,668.665161 631.076904,671.531372 
	C638.923645,671.531372 646.800293,671.531372 654.924438,671.531372 
	C654.924438,675.251099 654.924438,678.496399 654.924438,682.147705 
	C647.009705,682.147705 639.257446,682.147705 631.071777,682.147705 
	C631.071777,685.082703 631.071777,687.622314 631.071777,690.701172 
	C639.626343,690.701172 648.169678,690.701172 657.042664,690.701172 
	C657.042664,694.277222 657.042664,697.333557 657.042664,700.625183 
	C644.536316,700.625183 632.174133,700.625183 619.317993,700.625183 
	C619.317993,696.383484 619.317993,692.431824 619.317993,687.982910 
z"/>
  <path 
	d="
M495.953094,653.578125 
	C499.904846,653.578125 503.365112,653.578125 507.075195,653.578125 
	C507.075195,657.002441 507.075195,660.061157 507.075195,663.568542 
	C498.563354,663.568542 490.310089,663.568542 481.706024,663.568542 
	C481.706024,666.365540 481.706024,668.721802 481.706024,671.612671 
	C489.759033,671.612671 497.666290,671.612671 505.809631,671.612671 
	C505.809631,675.239929 505.809631,678.346497 505.809631,682.218018 
	C499.817596,682.218018 493.907318,682.215942 487.997070,682.218567 
	C480.540558,682.221924 480.437775,682.360962 482.039795,690.788818 
	C490.503204,690.788818 499.074707,690.788818 507.896973,690.788818 
	C507.896973,694.334900 507.896973,697.394775 507.896973,700.697754 
	C495.409088,700.697754 483.149475,700.697754 470.503540,700.697754 
	C470.503540,685.067627 470.503540,669.548645 470.503540,653.578125 
	C478.877533,653.578125 487.169556,653.578125 495.953094,653.578125 
z"/>
  <path 
	d="
M360.551666,690.495850 
	C359.724060,691.423767 359.228058,692.093201 358.850800,692.824036 
	C354.315826,701.609863 354.320404,701.612244 343.441132,700.518494 
	C345.547943,695.846130 347.555817,691.368652 349.583893,686.900330 
	C354.125336,676.894470 358.779816,666.937988 363.153198,656.859375 
	C364.271210,654.282898 365.674316,653.227783 368.390686,653.546082 
	C369.870117,653.719482 371.423157,653.787903 372.879242,653.535645 
	C376.641144,652.884033 378.451508,654.559631 379.935242,657.947449 
	C386.130310,672.092529 392.611664,686.112183 399.208710,700.664490 
	C397.185211,700.777954 395.740753,700.718689 394.349121,700.961914 
	C389.124969,701.874756 385.787262,699.858093 384.395294,694.733887 
	C383.335480,690.832458 380.839783,689.766174 376.915253,690.062683 
	C371.614777,690.463196 366.266296,690.228210 360.551666,690.495850 
M366.621307,676.388489 
	C365.432556,678.415100 365.294800,679.851746 368.347992,679.767090 
	C370.977570,679.694092 373.610840,679.751953 377.304199,679.751953 
	C375.169159,675.135193 373.373993,671.253418 371.116302,666.371460 
	C369.353821,670.252563 368.132202,672.942688 366.621307,676.388489 
z"/>
  <path 
	d="
M434.343506,665.893677 
	C434.331360,677.686951 434.331360,688.970154 434.331360,700.591980 
	C430.599701,700.591980 427.213623,700.591980 423.236328,700.591980 
	C423.236328,688.393860 423.236328,676.195007 423.236328,663.608093 
	C417.407654,663.608093 412.153015,663.608093 406.558655,663.608093 
	C406.558655,660.179810 406.558655,657.140930 406.558655,653.830200 
	C421.353882,653.830200 436.065643,653.830200 450.957520,653.830200 
	C450.957520,657.038452 450.957520,660.102478 450.957520,663.625305 
	C446.554016,663.625305 442.429443,663.483215 438.324677,663.705994 
	C436.975281,663.779297 435.677216,664.797485 434.343506,665.893677 
z"/>
  <path 
	d="
M529.503052,686.987793 
	C529.503052,675.721313 529.503052,664.952026 529.503052,653.888428 
	C533.326233,653.888428 536.727417,653.888428 540.750977,653.888428 
	C540.750977,666.150513 540.750977,678.344360 540.750977,690.843018 
	C549.139099,690.843018 556.915100,690.843018 565.078979,690.843018 
	C565.078979,694.195251 565.078979,697.241638 565.078979,700.618652 
	C553.354614,700.618652 541.686523,700.618652 529.502991,700.618652 
	C529.502991,696.050415 529.502991,691.767700 529.503052,686.987793 
z"/>
  <path 
	d="
M584.257568,679.999634 
	C584.257568,671.053589 584.257568,662.607483 584.257568,653.866577 
	C588.075012,653.866577 591.480774,653.866577 595.223755,653.866577 
	C595.223755,669.475342 595.223755,684.986450 595.223755,700.726379 
	C591.686829,700.726379 588.410950,700.726379 584.257507,700.726379 
	C584.257507,693.959839 584.257507,687.229736 584.257568,679.999634 
z"/>
</g>
</svg>