<svg xmlns="http://www.w3.org/2000/svg" id="mtz-logo" fill="currentColor" viewBox="58 380 998 330"><g id="mtz-logo-matize"><path id="mtz-logo-matize-letters" d="M144.602 508.85c16.864-2.684 33.296-5.363 49.756-7.863 2.932-.445 5.988-.326 8.969-.153 7.679.443 13.134 4.32 14.743 11.856 1.766 8.27 2.546 16.75 3.786 25.134.932 6.302 2.41 7.12 7.613 3.53 14.114-9.737 27.934-19.909 42.184-29.441 10.473-7.007 22.166-11.447 34.617-13.682 15.353-2.755 24.118 4.179 24.901 19.778.233 4.653-.008 9.327.098 13.989.08 3.513 1.821 4.636 4.794 2.56 4.093-2.86 8.053-5.915 12.01-8.964 17.079-13.155 35.268-24.069 57.098-27.03 4.5-.611 9.296-.064 13.812.752 5.023.908 9.237 6.644 9.022 12.921-.311 9.115-1.556 18.197-2.351 27.298-.348 3.974-.876 7.968-.772 11.938.137 5.226 3.114 8.95 8.01 8.166 9.442-1.51 18.697-4.256 27.94-6.81.955-.265 1.854-2.695 1.863-4.126.16-25.872 21.477-43.779 41.909-49.31 7.099-1.922 14.739-2.575 22.12-2.512 7.09.061 10.153 5.096 8.763 12.069-1.92 9.637-6.008 13.117-15.914 14-11.706 1.042-20.559 7.12-27.474 16.277-1.068 1.413-2.13 3.304-2.108 4.96.034 2.63.363 5.711 1.824 7.66.674.9 4.669.204 6.555-.849 10.028-5.596 19.776-11.696 29.809-17.283 4.633-2.58 9.687-4.41 14.567-6.54 4.648-2.028 8.005-.977 9.81 4.061.785 2.188 1.875 4.267 2.835 6.391 2.44 5.398 5.025 5.852 8.608 1.34 18.226-22.953 36.409-45.94 54.604-68.918 2.584-3.265 5.275-6.455 7.672-9.852 1.055-1.496 1.496-3.424 2.216-5.155-1.714-.408-3.43-1.18-5.141-1.167-16.164.123-32.33.228-48.489.63-28.815.716-57.63 1.51-86.434 2.587-4.953.185-7.872-1.684-10.083-5.62-.326-.582-.652-1.163-.962-1.752-6.712-12.767-3.982-18.672 10.194-19.15 43.788-1.473 87.594-2.388 131.395-3.463 7.162-.175 14.354-.41 21.489.05 4.543.294 6.743-1.607 9.038-5.156 5.962-9.22 12.234-18.254 18.707-27.125 4.352-5.964 9.791-6.28 17.09-1.682 6.427 4.048 7.537 7.62 3.959 14.684-3.007 5.933-6.453 11.642-9.672 17.468-.762 1.38-1.396 2.831-2.453 4.995 28.536 2.67 56.391 4.325 83.203 12.284l.048 1.628c-3.957.852-7.878 2.173-11.876 2.479a5747 5747 0 0 1-71.755 5.057c-13.462.861-13.53.643-20.365 12.201-11.951 20.213-24.029 40.41-31.482 62.825-2.049 6.16-3.105 12.987-2.926 19.461.196 7.113 4.314 9.278 10.552 5.804 8.843-4.924 17.114-10.869 25.696-16.271 13.92-8.762 27.732-17.716 41.95-25.966 3.798-2.203 8.874-2.727 13.42-2.975 5.302-.29 7.923 2.425 8.537 7.763.78 6.779 1.207 13.597 1.886 20.388.214 2.144.59 4.3 1.167 6.373 1.602 5.776 5.871 8.047 11.019 4.994 4.508-2.674 8.919-6.05 12.27-10.04 11.988-14.273 23.527-28.922 35.192-43.465 4.06-5.063 7.744-10.45 12.028-15.311 14.377-16.314 29.54-11.704 41.136 2.066 10.984 13.042 9.894 30.075-1.947 43.148-3.688 4.072-7.673 7.875-11.493 11.828-1.087 1.124-2.074 2.346-3.807 4.322 1.905 0 2.657.034 3.405-.005 10.195-.53 18.684 2.976 24.936 11.092 2.596 3.37 5.067 3.894 8.97 2.222 5.8-2.484 11.806-4.604 17.894-6.258 4.534-1.233 4.683-3.284 3.418-7.24-2.067-6.46-4.214-13.065-4.927-19.758-1.655-15.533 3.99-28.313 17.397-36.675 13.457-8.394 27.749-8.548 41.1-.11 6.74 4.26 12.807 10.154 17.856 16.382 6.867 8.468 6.14 17.505-1.623 25.179-5.143 5.084-11.244 9.339-17.377 13.241-5.735 3.65-12.089 6.325-18.149 9.47-4.719 2.45-5.201 4.484-.62 7.279 5.446 3.321 11.357 6.46 17.487 7.966 16.42 4.032 33.127 2.324 49.725.705 16.08-1.57 32.12-3.586 48.218-4.904 5.722-.468 11.578.41 17.342.978 1.226.121 3.258 1.574 3.259 2.415 0 1.33-1.092 3.366-2.258 3.873-5.454 2.372-10.932 5.077-16.69 6.299-33.15 7.034-66.578 11.91-100.609 10.17-16.611-.85-30.833-6.783-40.345-21.291-1.75-2.67-3.836-2.701-6.439-1.608-6.752 2.837-13.487 5.726-20.323 8.35-3.524 1.352-4.683 3.434-4.355 7.218 1.835 21.186-3.188 40.701-15.348 58.158-9.697 13.92-22.094 24.878-37.82 31.605-3.614 1.545-7.662 2.372-11.59 2.826-12.465 1.44-22.352-5.82-25.18-18.475-4.547-20.347 2.871-36.947 16.764-51.258 12.674-13.056 28.006-22.43 43.886-30.999 2.071-1.117 3.981-2.532 5.966-3.809l-.312-1.76c-2.28-.418-4.595-1.324-6.835-1.167-8.963.628-17.89 1.896-26.857 2.297-4.84.216-10.126.155-14.519-1.556-6.688-2.605-7.475-7.743-2.561-13.017 3.957-4.248 8.651-7.798 12.831-11.85 5.96-5.78 12.068-11.462 17.47-17.738 2.482-2.883 3.847-6.956 4.988-10.71 1.58-5.194-.25-9.939-4.105-12.355-4.466-2.8-8.888-1.875-12.462 1.321a109.6 109.6 0 0 0-12.015 12.624c-12.115 14.94-25.365 28.718-40.641 40.444-8.103 6.22-16.85 11.31-26.906 13.819-13.063 3.259-20.257-1.53-22.094-14.782-1.05-7.573-2.313-8.398-9.302-4.973-12.413 6.082-24.585 12.665-37.086 18.555-5.473 2.578-11.381 4.824-17.316 5.696-9.414 1.383-16.83-3.113-20.681-11.619-2.691-5.942-3.773-12.633-5.379-19.038-.584-2.33-.606-4.801-1.034-8.51-2.349 1.869-3.99 2.818-5.165 4.172-5.237 6.038-10.15 12.368-15.56 18.241-3.589 3.895-7.72 7.316-11.795 10.728-3.555 2.977-7.493 2.913-10.895-.182-6.517-5.93-13.03-11.892-19.127-18.241-3.381-3.52-5.485-3.442-8.828.068-9.453 9.926-19.731 18.993-32.19 24.999-5.335 2.57-11.085 4.67-16.877 5.811-8.838 1.74-15.957-1.614-20.84-9.428-3.65-5.842-3.662-5.614-9.677-2.181-6.908 3.942-13.719 8.372-21.129 11.048-12.345 4.458-21.84-.243-27.407-12.16-4.44-9.506-4.808-19.614-4.435-29.838.23-6.313-.1-6.431-5.938-4.146-17.78 6.958-32.72 18.394-47.686 29.845-6.605 5.053-13.202 10.223-20.317 14.48-13.448 8.049-24.163 2.48-25.543-13.165-.642-7.277-.23-14.648-.25-21.977-.026-8.855-2.193-10.542-10.01-6.08-10.667 6.089-20.929 12.914-31.173 19.712-11.921 7.91-23.562 16.246-35.491 24.145-3.003 1.988-6.546 3.321-10.01 4.422-10.268 3.26-18.393-1.564-20.122-12.36-1.473-9.194-2.22-18.511-3.11-27.791-.945-9.842-1.513-10.36-11.254-8.74-30.57 5.09-61.053 10.507-90.316 21.206-6.964 2.546-14.035 4.6-20.532-1.684-6.54-6.324-6.867-13.047 1.137-17.098 11.358-5.748 23.366-10.46 35.502-14.35 11.216-3.597 22.966-5.528 34.904-8.259m696.68 80.827c.21-1.65.681-3.32.562-4.948-.15-2.047-.782-4.058-1.206-6.085-1.849.55-3.909.747-5.512 1.705-12.599 7.534-24.923 15.482-35.08 26.262-8.773 9.31-14.746 19.77-12.558 33.24 1.275 7.85 4.657 9.761 11.718 6.165 22.933-11.679 37.549-29.755 42.076-56.339m55.983-72.21c.663 4.588 1.22 9.193 2.025 13.755.606 3.43 2.68 4.735 5.625 2.428 8.06-6.317 16.053-12.724 23.891-19.312 3.255-2.735 2.902-5.795-.72-8.145-3.197-2.075-6.36-4.282-9.789-5.904-10.157-4.805-18.704-.204-20.489 10.844-.29 1.797-.366 3.63-.543 6.335"/><path id="mtz-logo-matize-dot" d="M737.375 479.02c1.12.198 2.41.33 2.619.876 1.34 3.513-.877 9.093-4.814 11.725-3.93 2.627-8.292 3.901-12.551.896-3.884-2.74-5.59-6.897-3.888-11.352.868-2.27 3.292-4.802 5.519-5.436 1.88-.535 4.445 1.65 6.791 2.346 1.934.573 3.992.729 6.324.945"/></g><g id="mtz-logo-atelier"><path id="mtz-logo-atelier-a" d="M360.552 690.496c-.828.928-1.324 1.597-1.701 2.328-4.535 8.786-4.53 8.788-15.41 7.694 2.107-4.672 4.115-9.15 6.143-13.618 4.541-10.006 9.196-19.962 13.57-30.04 1.117-2.577 2.52-3.632 5.237-3.314 1.48.173 3.032.242 4.488-.01 3.762-.652 5.573 1.024 7.056 4.411 6.195 14.146 12.677 28.165 19.274 42.717-2.024.114-3.468.055-4.86.298-5.224.913-8.562-1.104-9.954-6.228-1.06-3.902-3.555-4.968-7.48-4.671-5.3.4-10.649.165-16.363.433m6.07-14.108c-1.19 2.027-1.327 3.464 1.726 3.38 2.63-.074 5.263-.016 8.956-.016l-6.188-13.38c-1.762 3.88-2.984 6.57-4.495 10.016"/><path id="mtz-logo-atelier-t" d="M434.344 665.894c-.013 11.793-.013 23.076-.013 34.698h-11.095v-36.984H406.56v-9.778h44.399v9.795c-4.404 0-8.529-.142-12.633.081-1.35.073-2.648 1.091-3.981 2.188"/><path id="mtz-logo-atelier-e1" d="M495.953 653.578h11.122v9.99h-25.369v8.045h24.104v10.605c-5.992 0-11.903-.002-17.813 0-7.456.004-7.56.143-5.957 8.57h25.857v9.91h-37.393v-47.12z"/><path id="mtz-logo-atelier-l" d="M529.503 686.988v-33.1h11.248v36.955h24.328v9.776h-35.576z"/><path id="mtz-logo-atelier-i" d="M584.258 680v-26.133h10.966v46.86h-10.966z"/><path id="mtz-logo-atelier-e2" d="M619.318 687.983V653.86h37.028v9.602h-25.27v8.07h23.848v10.616h-23.852v8.553h25.97v9.924h-37.724z"/><path id="mtz-logo-atelier-r" d="M717.597 695.422a603 603 0 0 1 4.115 5.15c-7.079.592-13.21 1.857-17.036-5.33-1.303-2.449-3.762-4.256-5.276-6.623-2.188-3.422-5.018-4.594-9.357-3.423v15.409h-10.997v-46.523c9.457 0 18.929-.649 28.266.196 8.087.732 12.224 5.714 12.988 12.863.85 7.968-1.74 12.136-9.85 15.877-.562.26-1.086.605-2.064 1.156 3.131 3.833 6.049 7.404 9.21 11.248m-27.44-21.205c4.52.185 9.116.915 13.526.303 1.937-.27 5.059-3.495 4.848-4.982-.297-2.1-2.913-4.97-5.027-5.48-4.199-1.012-8.732-.637-13.537-.854 0 3.848 0 6.965.19 11.013"/></g></svg>