<?xml version="1.0" encoding="UTF-8"?>
<svg id="mtz-logo-m-holder"
	xmlns="http://www.w3.org/2000/svg" viewBox="0 0 184.89 37.99">
	<g id="matize-logo-m-group">
		<path id="mtz-logo-m" d="M183.17,25.84c-.81,.33-1.97,.77-2.52,.91-4.16,1.13-14.31,5.67-14.4-2.12-.11-9.69,8.2-27.18-9.9-24.16-8.52,1.42-15.53,5.26-22.52,10.09-2.98,2.06-6.07,4.93-9.03,6.78-.73,.46-1.72,.84-1.99-.35-.3-1.35,.04-4.2-.02-5.77-.18-4.39-.65-8.7-5.23-10.58-2.86-1.17-6.11-.53-9.03,.14-11.98,2.73-21.67,11.5-31.43,18.4-.56,.4-2.63,1.79-3.09,2-1.01,.45-1.95,.23-2.23-1.29-.13-.73-.29-2.2-.38-3.01-.86-8.43-.44-16.64-11.77-15.43-6.91,.73-14.42,2.05-21.29,3.27C27.23,6.69,15.65,9.35,5.39,14.1,3.36,15.04-.21,17.2,0,19.89c.19,2.34,3.43,5.65,6.14,5.81,1.91,.11,5.85-1.16,7.69-1.83,12.23-4.46,25.17-6.74,38.03-8.88,1.75-.29,4.45-.83,5.44-.7,.6,.08,1.36,.28,1.49,1.21,.8,5.18,.96,10.59,1.75,15.75,.57,3.78,2.7,6.63,6.82,6.73,4.11,.1,12.18-5.37,15.65-7.8,7.47-5.22,14.75-11.85,23.15-15.52,1.25-.55,3.83-1.73,4.18,.53,.35,2.23-.07,5.76,0,8.18,.11,3.74-.04,8.69,3.19,11.21,4.07,3.18,9.1-.25,12.53-2.7,8.41-6.02,15.88-13.1,25.51-17.26,.88-.38,3.12-1.38,3.33-1.47,.89-.36,2.44-.99,2.14,1.07-.3,5.23-.18,10.79,2.24,15.55,5,9.82,14.27,5.65,21.27,.84,.68-.47,2.04-1.53,2.85-2.22,2.68-2.31,1.19-3.13-.24-2.55Z"/>
	</g>
</svg>