<?xml version="1.0" encoding="UTF-8"?>
<svg id="mtz-logo"
	xmlns="http://www.w3.org/2000/svg" viewBox="0 0 457.18 144.96">
	<g id="mtz-logo-holder">
		<g id="mtz-logo-matize">
			<path id="mtz-logo-matize-dot" d="M313.18,41.14c-1.38,.08-2.1,1.65-3.6,.56-.5-.36-.49-.88-.82-1.22-1.13-1.19-3.53-.94-4.61,.31-2.09,2.42-.69,6.99,2.39,7.63,4,.83,8.2-3.24,6.64-7.27"/>
			<path id="mtz-logo-matize-letters" d="M388.78,67.52c-.89-.09-1.12-1.62-1.31-2.37-1.08-4.28-1.89-13.59,4.16-14.54,1.52-.23,3.44,.09,4.84,.74,1.1,.51,4.42,2.55,5.28,3.33,1.28,1.15,.63,2.18-.28,3.25-2.3,2.7-6.38,6.07-9.4,7.96-.64,.4-2.67,1.7-3.29,1.64m-27.88,21.53c.22,7.3-3.46,16.13-8.26,21.52-2.99,3.35-9.21,8.16-13.48,9.52-2.39,.76-3.16-1.31-3.62-3.29-2.65-11.23,10.06-20.44,18.18-25.64,1.55-.99,3.77-2.49,5.4-3.21,.47-.21,1.06-.38,1.47,.06,.13,.13,.32,.82,.33,1.03m95.27-10.31c-3.31-1.52-11.11-.56-14.89-.21-4.52,.42-9.03,1.1-13.55,1.55-9.52,.94-26.62,3-34.29-3.67-.67-.58-2.07-1.73-1.27-2.67,6.29-3.33,13.88-6.21,18.63-11.72,6.06-7.04-.4-13.65-6.16-17.98-10.19-7.67-24.95-3.54-28.6,8.92-1.36,4.66-.58,9.28,.77,13.83,.32,1.08,1.44,3.53,1.52,4.39,.02,.2-.12,.69-.25,.83-.18,.19-4.28,1.35-4.98,1.59-2.34,.81-4.65,1.72-6.95,2.65-1.32,.32-2.12-1.39-2.93-2.23-1.07-1.1-2.01-2.07-3.37-2.84-2.13-1.22-4.04-1.64-6.52-1.81-.48-.03-.97,0-1.44,.09-.97,.18-2.16,.32-.49-1.26,.27-.25,2.76-2.72,3.27-3.28,.76-.85,2.65-2.66,3.39-3.52,6.22-7.2,5.04-17.09-2.63-22.63-9.56-6.91-15.25,.26-20.63,7.69-4.9,6.79-10.11,13.44-15.56,19.69-2.37,2.72-8.78,10.33-12.13,6.11-1.13-1.42-1.35-5.54-1.56-7.48-.23-2.1-.18-6.52-.92-8.25-1.17-2.77-5.26-2.4-7.59-1.66-5.33,1.69-11.89,5.96-16.52,9.17-4.04,2.79-15.23,11.93-19.51,12.25-1.61,.12-2.42-1.33-2.79-2.71-1.25-4.68,2.41-13.05,4.39-17.42,4.18-9.24,9.46-18,14.71-26.65,.22-.37,.61-.3,.93-.34,.61-.08,1.45-.1,2.11-.15,12.3-.92,24.75-.64,36.95-2.57,1.99-.31,3.99-.69,5.88-1.39,.25-.32-2.33-1.13-2.54-1.2-2.23-.71-4.72-1.16-7.03-1.58-8.84-1.61-17.71-2.58-27.47-3.24-2.06-.16-2.86,.37-.83-2.85,.63-1.01,5.29-8.9,5.39-10.56,.21-3.49-6.93-7.4-9.75-4.74-2.06,1.94-9.67,13.57-10.78,15.4-.3,.49-.43,.98-1.15,.97-25.21,.06-46.41-.05-71.54,1.44-1.86,.11-6.92,.27-7.77,1.94-1.61,3.18,2.15,10.74,4.51,10.64,23.03-.98,42.63-1.38,64.67-1.57,4.62-.34,1.96,2.34,1.44,2.99-2.28,2.79-5.96,7.61-8.51,10.98-6.9,9.07-14.09,17.37-21.06,26.38-.31,.4-.74,.73-1.23,.83-.83,.17-1.52-.23-1.97-1.18-.54-1.11-2.26-5.88-3.35-6.2-1.54-.45-5.65,1.52-7.21,2.22-5.29,2.35-9.92,5.84-14.96,8.62-.74,.41-2.72,1.58-3.43,1.67-1.87,.23-2.33-2.3-2.14-3.7,.62-4.53,8.37-9.85,12.76-10.25,3.89-.36,5.51,.83,7.61-3.4,2.12-4.27,2.07-8.65-3.67-9.05-13.19-.9-29.17,9.55-29.16,23.79,0,.43,0,.92,0,1.33,0,.57-.34,1.08-.87,1.28-.81,.32-1.97,.77-2.52,.91-4.16,1.13-14.31,5.67-14.4-2.12-.11-9.69,8.2-27.18-9.9-24.16-8.52,1.42-15.53,5.26-22.52,10.09-2.98,2.06-6.07,4.93-9.03,6.78-.73,.46-1.72,.84-1.99-.35-.3-1.35,.04-4.2-.02-5.77-.18-4.39-.65-8.7-5.23-10.58-2.86-1.17-6.11-.53-9.03,.14-11.98,2.73-21.67,11.5-31.43,18.4-.56,.4-2.63,1.79-3.09,2-1.01,.45-1.95,.23-2.23-1.29-.13-.73-.29-2.2-.38-3.01-.86-8.43-.44-16.64-11.77-15.43-6.91,.73-14.42,2.05-21.29,3.27-11.11,1.98-22.7,4.64-32.95,9.39-2.03,.94-5.6,3.1-5.38,5.79,.19,2.34,3.43,5.65,6.14,5.81,1.91,.11,5.85-1.16,7.69-1.83,12.23-4.46,25.17-6.74,38.03-8.88,1.75-.29,4.45-.83,5.44-.7,.6,.08,1.36,.28,1.49,1.21,.8,5.18,.96,10.59,1.75,15.75,.57,3.78,2.7,6.63,6.82,6.73,4.11,.1,12.18-5.37,15.65-7.8,7.47-5.22,14.75-11.85,23.15-15.52,1.25-.55,3.83-1.73,4.18,.53,.35,2.23-.07,5.76,0,8.18,.11,3.74-.04,8.69,3.19,11.21,4.07,3.18,9.1-.25,12.53-2.7,8.41-6.02,15.88-13.1,25.51-17.26,.88-.38,3.12-1.38,3.33-1.47,.89-.36,2.44-.99,2.14,1.07-.3,5.23-.18,10.79,2.24,15.55,5,9.82,14.27,5.65,21.27,.84,.68-.47,1.89-1.21,2.79-1.76,.65-.39,1.5-.18,1.9,.47,.65,1.06,1.58,2.55,2.04,3.07,6.5,7.37,18.51-.3,24.4-4.95,2.91-2.3,5.55-4.89,8.13-7.54,.63-.6,1.17-.77,1.81-.25,.83,.68,3.84,3.87,4.76,4.84,1.35,1.43,2.97,3.03,4.53,4.22,2.36,1.79,3.58,2.49,6.24,.62,5.26-3.69,8.42-9.1,12.73-13.67,.2-.21,.82-.87,.98-.99,.79-.61,1.28-.19,1.46,.39,.31,1.04,.18,2.98,.33,4.19,.67,5.58,3.51,12.52,9.94,13.07,6.03,.52,8.78-2.06,13.76-4.59,3.68-1.87,7.38-3.79,11.1-5.55,.99-.47,4.21-2.13,5.06-2.15,2.26-.05,1.81,2.73,2.08,4.28,2.15,12.11,16.94,3.85,22.67-.54,6.06-4.65,11.63-10.22,16.6-16,2.28-2.65,7.13-9.67,10.6-10.15,3.41-.48,5.79,2.41,5.4,5.69-.83,7.03-9.45,12.75-14.24,17.09-2.86,2.6-6.44,5.73-1.54,8.6,3.33,1.95,6.98,.58,10.64,.23,3.04-.3,7.49-.83,10.44-.57,1.14,.1,2.45,.84,1.2,1.9-.79,.67-2.75,1.46-3.76,2.03-12.93,7.36-29.45,18.23-27.15,35.52,1.71,12.78,13.18,12.54,21.63,7.38,13.81-8.43,21.11-22.17,21-36.6,0-1.28-.25-2.79-.29-4.08-.03-.89-.18-1.44,.66-1.9,2.25-1.22,5.78-2.48,8.25-3.47,1.01-.41,3.01-1.39,3.94-1.57,.25-.05,.47-.11,.72,0,1.1,1.13,1.9,2.61,2.96,3.82,4.71,5.35,11.36,7.13,18.27,7.42,11.4,.49,24.95-1.15,36.24-3.01,4.01-.66,14.95-2.42,17.62-5.11,.98-.99,1.04-1.79-.29-2.4"/>
		</g>
		<g id="mtz-logo-atelier">
			<path id="mtz-logo-atelier-a" d="M138.48,135.02c.93-1.95,1.84-3.96,2.77-6.06h.09c.93,2.1,1.84,4.11,2.77,6.06h-5.63Zm-.17-12.14l-10.02,22.08h5.41l2.46-5.04h10.28l2.46,5.04h5.52l-10.02-22.08h-6.08Z"/>
			<polygon id="mtz-logo-atelier-e1" points="204.86 122.88 187.51 122.88 187.51 144.96 205.2 144.96 205.2 140.32 192.72 140.32 192.72 136.24 204.18 136.24 204.18 131.34 192.72 131.34 192.72 127.52 204.86 127.52 204.86 122.88"/>
			<polygon id="mtz-logo-atelier-e2" points="274.46 122.88 257.11 122.88 257.11 144.96 274.8 144.96 274.8 140.32 262.32 140.32 262.32 136.24 273.78 136.24 273.78 131.34 262.32 131.34 262.32 127.52 274.46 127.52 274.46 122.88"/>
			<rect id="mtz-logo-atelier-i" x="240.75" y="122.88" width="5.21" height="22.08"/>
			<polygon id="mtz-logo-atelier-l" points="220.4 122.88 215.19 122.88 215.19 144.96 231.92 144.96 231.92 140.32 220.4 140.32 220.4 122.88"/>
			<path id="mtz-logo-atelier-r" d="M294.19,127.43c1.73,0,4.64,.37,4.64,2.8s-2.94,2.72-4.72,2.72h-4.11v-5.52h4.19Zm.88-4.56h-10.28v22.08h5.21v-7.56h2.86l6.23,7.56h5.86l-6.57-7.98v-.03c2.94-.74,5.92-2.46,5.92-6.77,0-7.3-7.62-7.3-9.23-7.3"/>
			<polygon id="mtz-logo-atelier-t" points="178.68 122.88 157.7 122.88 157.7 127.52 165.6 127.52 165.6 144.96 170.78 144.96 170.78 127.52 178.68 127.52 178.68 122.88"/>
		</g>
	</g>
</svg>